# xmcd CD database file
#
# Track frame offsets:
#	150
#	23132
#	56302
#	71085
#	92422
#	120482
#	142667
#	164280
#	192690
#	212800
#	241055
#
# Disc length: 3391 seconds
#
# Revision: 1
# Processed by: cddbd v1.5.1PL0 Copyright (c) Steve Scherf et al.
# Submitted via: CDex 1.51
#
DISCID=8e0d3d0b
DTITLE=石川二三夫 - RED HOT BOOGIE
DYEAR=1996
DGENRE=Blues
TTITLE0=Red Hot Boogie
TTITLE1=Last Night
TTITLE2=Is You Is Or Is You Ain't My Baby
TTITLE3=Honest I Do
TTITLE4=Mystery Train
TTITLE5=Keep It To Yourself
TTITLE6=Help Me
TTITLE7=Going To Chicago
TTITLE8=Keep On Groovin' Me
TTITLE9=Mellow Down Easy
TTITLE10=Just Your Fool
EXTD=YEAR: 1996
EXTT0=
EXTT1=
EXTT2=
EXTT3=
EXTT4=
EXTT5=
EXTT6=
EXTT7=
EXTT8=
EXTT9=
EXTT10=
PLAYORDER=
